<svg width="126" height="40" viewBox="0 0 126 40" fill="none" xmlns="http://www.w3.org/2000/svg">
<g clip-path="url(#clip0_401_536)">
<path d="M66.8571 10.4552C66.8571 11.8405 65.7091 12.974 64.3061 12.974C62.903 12.974 61.7551 11.8405 61.7551 10.4552C61.7551 9.06985 62.8392 7.93639 64.3061 7.93639C65.7729 7.96788 66.8571 9.10134 66.8571 10.4552ZM56.3979 15.4928C56.3979 15.7132 56.3979 16.1225 56.3979 16.1225C56.3979 16.1225 55.1862 14.5797 52.6033 14.5797C48.3622 14.5797 45.014 17.7912 45.014 22.1991C45.014 26.607 48.2984 29.8184 52.6033 29.8184C55.2181 29.8184 56.3979 28.2442 56.3979 28.2442V28.9054C56.3979 29.2202 56.6211 29.4406 56.94 29.4406H60.0969V14.9575C60.0969 14.9575 57.1951 14.9575 56.94 14.9575C56.6211 14.9575 56.3979 15.2409 56.3979 15.4928ZM56.3979 24.7808C55.8239 25.6309 54.6441 26.3551 53.241 26.3551C50.7538 26.3551 48.8405 24.8123 48.8405 22.1991C48.8405 19.5858 50.7538 18.0431 53.241 18.0431C54.6122 18.0431 55.8558 18.7987 56.3979 19.6173V24.7808ZM62.4566 14.9575H66.2193V29.4406H62.4566V14.9575ZM118.42 14.5797C115.837 14.5797 114.625 16.1225 114.625 16.1225V7.99937H110.862V29.4721C110.862 29.4721 113.764 29.4721 114.019 29.4721C114.338 29.4721 114.561 29.1887 114.561 28.9368V28.2757C114.561 28.2757 115.773 29.8499 118.356 29.8499C122.597 29.8499 125.945 26.607 125.945 22.2306C125.977 17.8227 122.629 14.5797 118.42 14.5797ZM117.814 26.3236C116.379 26.3236 115.231 25.5994 114.657 24.7493V19.5858C115.231 18.8302 116.506 18.0116 117.814 18.0116C120.301 18.0116 122.214 19.5543 122.214 22.1676C122.214 24.7808 120.301 26.3236 117.814 26.3236ZM108.949 20.8452V29.4721H105.186V21.286C105.186 18.8932 104.421 17.9171 102.284 17.9171C101.136 17.9171 99.9885 18.4838 99.2551 19.3339V29.4406H95.4923V14.9575H98.4579C98.7767 14.9575 99 15.2409 99 15.4928V16.1225C100.084 14.989 101.551 14.5797 102.986 14.5797C104.612 14.5797 105.983 15.052 107.099 15.9651C108.439 17.0355 108.949 18.4209 108.949 20.8452ZM86.4043 14.5797C83.8214 14.5797 82.6096 16.1225 82.6096 16.1225V7.99937H78.8469V29.4721C78.8469 29.4721 81.7487 29.4721 82.0038 29.4721C82.3227 29.4721 82.5459 29.1887 82.5459 28.9368V28.2757C82.5459 28.2757 83.7576 29.8499 86.3405 29.8499C90.5816 29.8499 93.9298 26.607 93.9298 22.2306C93.9936 17.8227 90.6772 14.5797 86.4043 14.5797ZM85.7984 26.3236C84.3635 26.3236 83.2155 25.5994 82.6415 24.7493V19.5858C83.2155 18.8302 84.491 18.0116 85.7984 18.0116C88.2857 18.0116 90.1989 19.5543 90.1989 22.1676C90.1989 24.7808 88.2857 26.3236 85.7984 26.3236ZM75.6262 14.5797C76.7742 14.5797 77.3482 14.7686 77.3482 14.7686V18.2005C77.3482 18.2005 74.2232 17.1615 72.278 19.3654V29.5036H68.5153V14.9575C68.5153 14.9575 71.417 14.9575 71.6721 14.9575C71.991 14.9575 72.2142 15.2409 72.2142 15.4928V16.1225C72.9477 15.3039 74.4783 14.5797 75.6262 14.5797ZM36.7232 28.1497C36.5318 27.6774 36.3405 27.1737 36.1492 26.7644C35.8303 26.0717 35.5114 25.4105 35.2563 24.8123L35.2244 24.7808C32.5459 18.9876 29.6441 13.1314 26.5829 7.36967L26.4553 7.14927C26.1364 6.58254 25.8176 5.95285 25.5306 5.32315C25.1479 4.63048 24.7653 3.90632 24.1275 3.21366C22.8839 1.67089 21.0982 0.820801 19.1849 0.820801C17.2397 0.820801 15.4859 1.67089 14.1785 3.1192C13.6045 3.81187 13.1581 4.53602 12.7755 5.22869C12.4566 5.85839 12.1377 6.4566 11.8507 7.05482L11.7232 7.27521C8.72572 13.0684 5.79205 18.9246 3.08159 24.6864L3.0497 24.7493C2.76271 25.379 2.47572 26.0087 2.15684 26.7014C1.96551 27.1107 1.77419 27.583 1.58286 28.0868C1.07266 29.5036 0.913219 30.8574 1.10455 32.2428C1.51909 35.1394 3.49613 37.5637 6.1747 38.6342C7.19511 39.0435 8.2474 39.2639 9.33159 39.2639C9.65046 39.2639 10.0331 39.2324 10.352 39.2009C11.6275 39.0435 12.9668 38.6342 14.2423 37.8786C15.8367 36.997 17.3673 35.7061 19.0892 33.88C20.8112 35.7376 22.3737 36.997 23.9362 37.8786C25.2117 38.6027 26.551 39.0435 27.8265 39.2009C28.1454 39.2324 28.528 39.2639 28.8469 39.2639C29.9311 39.2639 31.0471 39.075 32.0038 38.6342C34.7461 37.5637 36.6594 35.0764 37.0739 32.2428C37.3928 30.9204 37.2334 29.5665 36.7232 28.1497ZM19.1211 30.1333C17.0165 27.52 15.6454 25.0327 15.167 22.9547C14.9757 22.0731 14.9438 21.286 15.0395 20.5933C15.1033 19.9636 15.3584 19.4284 15.6772 18.9876C16.4107 17.9486 17.6543 17.2874 19.1211 17.2874C20.588 17.2874 21.8635 17.9171 22.565 18.9876C22.8839 19.4599 23.1071 19.9951 23.2028 20.5933C23.3303 21.286 23.2665 22.1046 23.0752 22.9547C22.5969 25.0327 21.2257 27.4885 19.1211 30.1333ZM34.6823 31.9594C34.3954 33.9744 33.0561 35.7061 31.1428 36.4617C30.2181 36.8396 29.1977 36.9655 28.1772 36.8396C27.1887 36.7136 26.2321 36.4303 25.2117 35.832C23.8086 35.0764 22.4056 33.88 20.7474 32.0853C23.3303 28.9683 24.8928 26.1032 25.4668 23.5529C25.7538 22.3565 25.7857 21.286 25.6581 20.2785C25.4987 19.3025 25.1479 18.4209 24.6058 17.6652C23.3941 15.9336 21.3533 14.9261 19.0892 14.9261C16.8252 14.9261 14.7844 15.9651 13.5727 17.6652C13.0306 18.4209 12.6798 19.3339 12.5204 20.2785C12.3609 21.286 12.3928 22.388 12.7117 23.5529C13.2857 26.1032 14.9119 28.9998 17.4311 32.1168C15.8367 33.88 14.4017 35.0764 12.9668 35.8635C11.9464 36.4303 10.9897 36.7451 10.0012 36.871C8.94893 36.997 7.92853 36.8396 7.03567 36.4932C5.1224 35.7376 3.75123 33.9744 3.49613 31.9909C3.36858 31.0149 3.46424 30.0703 3.84689 28.9998C3.97444 28.622 4.16577 28.2442 4.3571 27.7719C4.64409 27.1422 4.93108 26.5125 5.24995 25.8513L5.28184 25.7884C7.96041 20.0581 10.8622 14.1704 13.8596 8.47164L13.9872 8.25124C14.3061 7.68452 14.625 7.05482 14.9119 6.48809C15.2308 5.85839 15.5816 5.29166 15.9961 4.7879C16.8252 3.87484 17.9094 3.37108 19.1211 3.37108C20.3329 3.37108 21.417 3.87484 22.2461 4.7879C22.6607 5.29166 23.0114 5.85839 23.3303 6.48809C23.6492 7.05482 23.9681 7.68452 24.2551 8.25124L24.3826 8.47164C27.3482 14.2019 30.25 20.0896 32.9285 25.8198V25.8513C33.2474 26.481 33.5025 27.1737 33.8214 27.7719C34.0127 28.2442 34.204 28.622 34.3316 28.9998C34.7142 29.9758 34.8418 30.9519 34.6823 31.9594Z" fill="#244D4D"/>
</g>
<defs>
<clipPath id="clip0_401_536">
<rect width="125" height="39" fill="white" transform="translate(0.977539 0.486084)"/>
</clipPath>
</defs>
</svg>
