<svg width="45" height="54" viewBox="0 0 45 54" fill="none" xmlns="http://www.w3.org/2000/svg">
<path d="M44.9476 14.81L44.9459 14.7689C44.923 14.2613 44.9076 13.7243 44.8984 13.1268C44.8552 10.2131 42.539 7.80289 39.6249 7.64001C33.5491 7.30095 28.8489 5.31976 24.8329 1.40537L24.7987 1.37271C23.4888 0.171662 21.5128 0.171662 20.2025 1.37271L20.1682 1.40537C16.1522 5.31976 11.4521 7.30095 5.37627 7.64042C2.46255 7.80289 0.145929 10.2131 0.10279 13.1272C0.0939201 13.7206 0.0781964 14.2577 0.0552157 14.7689L0.0527967 14.8644C-0.0653325 21.06 -0.212087 28.7706 2.3674 35.7693C3.78576 39.618 5.93386 42.9635 8.75163 45.7135C11.9609 48.8454 16.1643 51.3317 21.2451 53.1033C21.4104 53.1609 21.5822 53.2077 21.7571 53.2428C22.0039 53.2919 22.2522 53.3165 22.5006 53.3165C22.7489 53.3165 22.9977 53.2919 23.244 53.2428C23.419 53.2077 23.592 53.1605 23.7581 53.1025C28.8328 51.3277 33.0318 48.8401 36.2383 45.7087C39.0548 42.9578 41.2029 39.6115 42.6225 35.762C45.2116 28.7424 45.0653 21.0172 44.9476 14.81ZM39.7132 34.6892C36.9926 42.0656 31.4389 47.1315 22.7348 50.1754C22.7038 50.1859 22.6707 50.1952 22.6365 50.202C22.5465 50.2198 22.455 50.2198 22.3639 50.2016C22.33 50.1948 22.297 50.1859 22.2663 50.1754C13.553 47.1371 7.99568 42.0741 5.27709 34.6973C2.89959 28.2461 3.03425 21.168 3.15319 14.9237L3.15399 14.889C3.17818 14.3524 3.19431 13.7904 3.20318 13.1727C3.22253 11.879 4.25304 10.8085 5.54923 10.7364C8.98748 10.5445 12.008 9.88003 14.7835 8.70519C17.5553 7.53196 20.017 5.87815 22.3087 3.64942C22.4252 3.55105 22.5764 3.55064 22.6925 3.64942C24.9845 5.87815 27.4463 7.53196 30.2177 8.70519C32.9931 9.88003 36.0137 10.5445 39.4523 10.7364C40.7485 10.8085 41.779 11.879 41.798 13.1731C41.8073 13.794 41.8234 14.356 41.8476 14.889C41.9661 21.1406 42.0975 28.2243 39.7132 34.6892Z" fill="#244D4D"/>
<path d="M22.4996 13.7255C15.2377 13.7255 9.33 19.6336 9.33 26.8951C9.33 34.157 15.2377 40.0651 22.4996 40.0651C29.7612 40.0651 35.6693 34.157 35.6693 26.8951C35.6693 19.6336 29.7612 13.7255 22.4996 13.7255ZM22.4996 36.9639C16.9475 36.9639 12.4308 32.4472 12.4308 26.8951C12.4308 21.343 16.9475 16.8263 22.4996 16.8263C28.0513 16.8263 32.5681 21.343 32.5681 26.8951C32.5681 32.4472 28.0513 36.9639 22.4996 36.9639Z" fill="#244D4D"/>
<path d="M26.2846 22.8066L20.1677 28.9236L18.5074 27.2633C17.9018 26.6578 16.9201 26.6578 16.3146 27.2633C15.7094 27.8689 15.7094 28.8506 16.3146 29.4558L19.0715 32.2127C19.3742 32.5155 19.771 32.6666 20.1677 32.6666C20.5644 32.6666 20.9611 32.5155 21.2639 32.2127L28.4775 24.9991C29.0826 24.3935 29.0826 23.4118 28.4775 22.8066C27.8719 22.2007 26.8902 22.2007 26.2846 22.8066Z" fill="#244D4D"/>
</svg>
