<svg width="145" height="23" viewBox="0 0 145 23" fill="none" xmlns="http://www.w3.org/2000/svg">
<path d="M0.992 18V1.2H8.624C10.448 1.2 12.056 1.552 13.448 2.256C14.84 2.944 15.928 3.912 16.712 5.16C17.496 6.408 17.888 7.888 17.888 9.6C17.888 11.296 17.496 12.776 16.712 14.04C15.928 15.288 14.84 16.264 13.448 16.968C12.056 17.656 10.448 18 8.624 18H0.992ZM4.88 14.808H8.432C9.552 14.808 10.52 14.6 11.336 14.184C12.168 13.752 12.808 13.144 13.256 12.36C13.72 11.576 13.952 10.656 13.952 9.6C13.952 8.528 13.72 7.608 13.256 6.84C12.808 6.056 12.168 5.456 11.336 5.04C10.52 4.608 9.552 4.392 8.432 4.392H4.88V14.808ZM26.0041 18.192C24.9321 18.192 23.9721 17.984 23.1241 17.568C22.2921 17.152 21.6441 16.52 21.1801 15.672C20.7161 14.808 20.4841 13.712 20.4841 12.384V5.088H24.2281V11.832C24.2281 12.904 24.4521 13.696 24.9001 14.208C25.3641 14.704 26.0121 14.952 26.8441 14.952C27.4201 14.952 27.9321 14.832 28.3801 14.592C28.8281 14.336 29.1801 13.952 29.4361 13.44C29.6921 12.912 29.8201 12.256 29.8201 11.472V5.088H33.5641V18H30.0121V14.448L30.6601 15.48C30.2281 16.376 29.5881 17.056 28.7401 17.52C27.9081 17.968 26.9961 18.192 26.0041 18.192ZM42.5767 18.192C41.3607 18.192 40.2647 17.92 39.2887 17.376C38.3127 16.816 37.5367 16.04 36.9607 15.048C36.4007 14.056 36.1207 12.888 36.1207 11.544C36.1207 10.184 36.4007 9.008 36.9607 8.016C37.5367 7.024 38.3127 6.256 39.2887 5.712C40.2647 5.168 41.3607 4.896 42.5767 4.896C43.6647 4.896 44.6167 5.136 45.4327 5.616C46.2487 6.096 46.8807 6.824 47.3287 7.8C47.7767 8.776 48.0007 10.024 48.0007 11.544C48.0007 13.048 47.7847 14.296 47.3527 15.288C46.9207 16.264 46.2967 16.992 45.4807 17.472C44.6807 17.952 43.7127 18.192 42.5767 18.192ZM43.2247 15.12C43.8327 15.12 44.3847 14.976 44.8807 14.688C45.3767 14.4 45.7687 13.992 46.0567 13.464C46.3607 12.92 46.5127 12.28 46.5127 11.544C46.5127 10.792 46.3607 10.152 46.0567 9.624C45.7687 9.096 45.3767 8.688 44.8807 8.4C44.3847 8.112 43.8327 7.968 43.2247 7.968C42.6007 7.968 42.0407 8.112 41.5447 8.4C41.0487 8.688 40.6487 9.096 40.3447 9.624C40.0567 10.152 39.9127 10.792 39.9127 11.544C39.9127 12.28 40.0567 12.92 40.3447 13.464C40.6487 13.992 41.0487 14.4 41.5447 14.688C42.0407 14.976 42.6007 15.12 43.2247 15.12ZM46.6087 18V15.36L46.6807 11.52L46.4407 7.704V0.191999H50.1847V18H46.6087ZM60.0579 18.192C58.5859 18.192 57.2899 17.904 56.1699 17.328C55.0659 16.752 54.2099 15.968 53.6019 14.976C52.9939 13.968 52.6899 12.824 52.6899 11.544C52.6899 10.248 52.9859 9.104 53.5779 8.112C54.1859 7.104 55.0099 6.32 56.0499 5.76C57.0899 5.184 58.2659 4.896 59.5779 4.896C60.8419 4.896 61.9779 5.168 62.9859 5.712C64.0099 6.24 64.8179 7.008 65.4099 8.016C66.0019 9.008 66.2979 10.2 66.2979 11.592C66.2979 11.736 66.2899 11.904 66.2739 12.096C66.2579 12.272 66.2419 12.44 66.2259 12.6H55.7379V10.416H64.2579L62.8179 11.064C62.8179 10.392 62.6819 9.808 62.4099 9.312C62.1379 8.816 61.7619 8.432 61.2819 8.16C60.8019 7.872 60.2419 7.728 59.6019 7.728C58.9619 7.728 58.3939 7.872 57.8979 8.16C57.4179 8.432 57.0419 8.824 56.7699 9.336C56.4979 9.832 56.3619 10.424 56.3619 11.112V11.688C56.3619 12.392 56.5139 13.016 56.8179 13.56C57.1379 14.088 57.5779 14.496 58.1379 14.784C58.7139 15.056 59.3859 15.192 60.1539 15.192C60.8419 15.192 61.4419 15.088 61.9539 14.88C62.4819 14.672 62.9619 14.36 63.3939 13.944L65.3859 16.104C64.7939 16.776 64.0499 17.296 63.1539 17.664C62.2579 18.016 61.2259 18.192 60.0579 18.192ZM74.5745 18.288C73.2305 18.288 71.9425 18.112 70.7105 17.76C69.4785 17.392 68.4865 16.92 67.7345 16.344L69.0545 13.416C69.7745 13.928 70.6225 14.352 71.5985 14.688C72.5905 15.008 73.5905 15.168 74.5985 15.168C75.3665 15.168 75.9825 15.096 76.4465 14.952C76.9265 14.792 77.2785 14.576 77.5025 14.304C77.7265 14.032 77.8385 13.72 77.8385 13.368C77.8385 12.92 77.6625 12.568 77.3105 12.312C76.9585 12.04 76.4945 11.824 75.9185 11.664C75.3425 11.488 74.7025 11.328 73.9985 11.184C73.3105 11.024 72.6145 10.832 71.9105 10.608C71.2225 10.384 70.5905 10.096 70.0145 9.744C69.4385 9.392 68.9665 8.928 68.5985 8.352C68.2465 7.776 68.0705 7.04 68.0705 6.144C68.0705 5.184 68.3265 4.312 68.8385 3.528C69.3665 2.728 70.1505 2.096 71.1905 1.632C72.2465 1.152 73.5665 0.912 75.1505 0.912C76.2065 0.912 77.2465 1.04 78.2705 1.296C79.2945 1.536 80.1985 1.904 80.9825 2.4L79.7825 5.352C78.9985 4.904 78.2145 4.576 77.4305 4.368C76.6465 4.144 75.8785 4.032 75.1265 4.032C74.3745 4.032 73.7585 4.12 73.2785 4.296C72.7985 4.472 72.4545 4.704 72.2465 4.992C72.0385 5.264 71.9345 5.584 71.9345 5.952C71.9345 6.384 72.1105 6.736 72.4625 7.008C72.8145 7.264 73.2785 7.472 73.8545 7.632C74.4305 7.792 75.0625 7.952 75.7505 8.112C76.4545 8.272 77.1505 8.456 77.8385 8.664C78.5425 8.872 79.1825 9.152 79.7585 9.504C80.3345 9.856 80.7985 10.32 81.1505 10.896C81.5185 11.472 81.7025 12.2 81.7025 13.08C81.7025 14.024 81.4385 14.888 80.9105 15.672C80.3825 16.456 79.5905 17.088 78.5345 17.568C77.4945 18.048 76.1745 18.288 74.5745 18.288ZM91.9432 4.896C92.9672 4.896 93.8792 5.104 94.6792 5.52C95.4952 5.92 96.1352 6.544 96.5992 7.392C97.0632 8.224 97.2952 9.296 97.2952 10.608V18H93.5512V11.184C93.5512 10.144 93.3192 9.376 92.8552 8.88C92.4072 8.384 91.7672 8.136 90.9352 8.136C90.3432 8.136 89.8072 8.264 89.3272 8.52C88.8632 8.76 88.4952 9.136 88.2232 9.648C87.9672 10.16 87.8392 10.816 87.8392 11.616V18H84.0952V0.191999H87.8392V8.664L86.9992 7.584C87.4632 6.72 88.1272 6.056 88.9912 5.592C89.8552 5.128 90.8392 4.896 91.9432 4.896ZM108.609 18V15.48L108.369 14.928V10.416C108.369 9.616 108.121 8.992 107.625 8.544C107.145 8.096 106.401 7.872 105.393 7.872C104.705 7.872 104.025 7.984 103.353 8.208C102.697 8.416 102.137 8.704 101.673 9.072L100.329 6.456C101.033 5.96 101.881 5.576 102.873 5.304C103.865 5.032 104.873 4.896 105.897 4.896C107.865 4.896 109.393 5.36 110.481 6.288C111.569 7.216 112.113 8.664 112.113 10.632V18H108.609ZM104.673 18.192C103.665 18.192 102.801 18.024 102.081 17.688C101.361 17.336 100.809 16.864 100.425 16.272C100.041 15.68 99.8489 15.016 99.8489 14.28C99.8489 13.512 100.033 12.84 100.401 12.264C100.785 11.688 101.385 11.24 102.201 10.92C103.017 10.584 104.081 10.416 105.393 10.416H108.825V12.6H105.801C104.921 12.6 104.313 12.744 103.977 13.032C103.657 13.32 103.497 13.68 103.497 14.112C103.497 14.592 103.681 14.976 104.049 15.264C104.433 15.536 104.953 15.672 105.609 15.672C106.233 15.672 106.793 15.528 107.289 15.24C107.785 14.936 108.145 14.496 108.369 13.92L108.945 15.648C108.673 16.48 108.177 17.112 107.457 17.544C106.737 17.976 105.809 18.192 104.673 18.192ZM123.133 18.192C122.045 18.192 121.093 17.952 120.277 17.472C119.461 16.992 118.821 16.264 118.357 15.288C117.909 14.296 117.685 13.048 117.685 11.544C117.685 10.024 117.901 8.776 118.333 7.8C118.765 6.824 119.389 6.096 120.205 5.616C121.021 5.136 121.997 4.896 123.133 4.896C124.349 4.896 125.437 5.176 126.397 5.736C127.373 6.28 128.141 7.048 128.701 8.04C129.277 9.032 129.565 10.2 129.565 11.544C129.565 12.904 129.277 14.08 128.701 15.072C128.141 16.064 127.373 16.832 126.397 17.376C125.437 17.92 124.349 18.192 123.133 18.192ZM115.501 22.656V5.088H119.077V7.728L119.005 11.568L119.245 15.384V22.656H115.501ZM122.485 15.12C123.109 15.12 123.661 14.976 124.141 14.688C124.637 14.4 125.029 13.992 125.317 13.464C125.621 12.92 125.773 12.28 125.773 11.544C125.773 10.792 125.621 10.152 125.317 9.624C125.029 9.096 124.637 8.688 124.141 8.4C123.661 8.112 123.109 7.968 122.485 7.968C121.861 7.968 121.301 8.112 120.805 8.4C120.309 8.688 119.917 9.096 119.629 9.624C119.341 10.152 119.197 10.792 119.197 11.544C119.197 12.28 119.341 12.92 119.629 13.464C119.917 13.992 120.309 14.4 120.805 14.688C121.301 14.976 121.861 15.12 122.485 15.12ZM138.48 18.192C137.008 18.192 135.712 17.904 134.592 17.328C133.488 16.752 132.632 15.968 132.024 14.976C131.416 13.968 131.112 12.824 131.112 11.544C131.112 10.248 131.408 9.104 132 8.112C132.608 7.104 133.432 6.32 134.472 5.76C135.512 5.184 136.688 4.896 138 4.896C139.264 4.896 140.4 5.168 141.408 5.712C142.432 6.24 143.24 7.008 143.832 8.016C144.424 9.008 144.72 10.2 144.72 11.592C144.72 11.736 144.712 11.904 144.696 12.096C144.68 12.272 144.664 12.44 144.648 12.6H134.16V10.416H142.68L141.24 11.064C141.24 10.392 141.104 9.808 140.832 9.312C140.56 8.816 140.184 8.432 139.704 8.16C139.224 7.872 138.664 7.728 138.024 7.728C137.384 7.728 136.816 7.872 136.32 8.16C135.84 8.432 135.464 8.824 135.192 9.336C134.92 9.832 134.784 10.424 134.784 11.112V11.688C134.784 12.392 134.936 13.016 135.24 13.56C135.56 14.088 136 14.496 136.56 14.784C137.136 15.056 137.808 15.192 138.576 15.192C139.264 15.192 139.864 15.088 140.376 14.88C140.904 14.672 141.384 14.36 141.816 13.944L143.808 16.104C143.216 16.776 142.472 17.296 141.576 17.664C140.68 18.016 139.648 18.192 138.48 18.192Z" fill="#244D4D"/>
</svg>
