<svg width="20" height="21" viewBox="0 0 20 21" fill="none" xmlns="http://www.w3.org/2000/svg">
<g id="facebook 2" clip-path="url(#clip0_414_368)">
<g id="Group">
<path id="Vector" d="M10.001 20.9253C15.5238 20.9253 20.001 16.4481 20.001 10.9253C20.001 5.40245 15.5238 0.925293 10.001 0.925293C4.47813 0.925293 0.000976562 5.40245 0.000976562 10.9253C0.000976562 16.4481 4.47813 20.9253 10.001 20.9253Z" fill="white"/>
<path id="Vector_2" d="M12.515 11.3168H10.7306V17.8539H8.02712V11.3168H6.74133V9.0194H8.02712V7.53271C8.02712 6.46957 8.53213 4.80481 10.7547 4.80481L12.7572 4.81319V7.04321H11.3042C11.0659 7.04321 10.7308 7.16229 10.7308 7.66944V9.02154H12.7512L12.515 11.3168Z" fill="#305F64"/>
</g>
</g>
<defs>
<clipPath id="clip0_414_368">
<rect width="20" height="20" fill="white" transform="translate(0.000976562 0.925293)"/>
</clipPath>
</defs>
</svg>
