<svg width="107" height="38" viewBox="0 0 107 38" fill="none" xmlns="http://www.w3.org/2000/svg">
<path d="M13.0517 0.29419H4.77051C4.20372 0.29419 3.72183 0.836859 3.6334 1.57429L0.284087 29.5572C0.217471 30.1091 0.542061 30.6071 0.967017 30.6071H4.9206C5.48729 30.6071 5.96918 30.0646 6.05761 29.3258L6.96091 21.7785C7.04815 21.0395 7.53123 20.497 8.09673 20.497H10.7183C16.1734 20.497 19.3217 17.0184 20.1439 10.1252C20.5144 7.10938 20.1596 4.73989 19.088 3.08043C17.911 1.25801 15.8234 0.29419 13.0517 0.29419V0.29419ZM14.0071 10.5146C13.5543 14.4303 11.2838 14.4303 9.08846 14.4303H7.83885L8.7155 7.11747C8.76762 6.67541 9.05816 6.34991 9.39726 6.34991H9.96996C11.4654 6.34991 12.8762 6.34991 13.6051 7.47313C14.0398 8.14341 14.173 9.13905 14.0071 10.5146Z" fill="#283B82"/>
<path d="M37.8057 10.3884H33.8402C33.5024 10.3884 33.2106 10.7139 33.1583 11.156L32.983 12.6176L32.7056 12.0877C31.8471 10.4458 29.9326 9.89697 28.0218 9.89697C23.6397 9.89697 19.8968 14.2706 19.1679 20.4059C18.7889 23.4664 19.3277 26.3929 20.6452 28.4336C21.8536 30.31 23.5827 31.0919 25.6401 31.0919C29.1711 31.0919 31.1291 28.1003 31.1291 28.1003L30.9522 29.5523C30.8855 30.1076 31.2102 30.6054 31.6329 30.6054H35.2048C35.7727 30.6054 36.2522 30.0628 36.3419 29.3242L38.4851 11.4383C38.553 10.8878 38.2297 10.3884 37.8057 10.3884V10.3884ZM32.2781 20.5592C31.8956 23.5445 30.0973 25.5489 27.804 25.5489C26.6525 25.5489 25.7321 25.0621 25.1411 24.1398C24.5551 23.2238 24.3323 21.9202 24.5188 20.4681C24.876 17.5082 26.7045 15.4387 28.9627 15.4387C30.089 15.4387 31.0043 15.9317 31.6073 16.8619C32.2117 17.8017 32.4512 19.1134 32.2781 20.5592Z" fill="#283B82"/>
<path d="M58.9262 10.3884H54.9413C54.561 10.3884 54.2038 10.6374 53.9883 11.0539L48.492 21.7225L46.1623 11.4703C46.0158 10.8288 45.5666 10.3884 45.058 10.3884H41.142C40.6661 10.3884 40.3356 11.0011 40.4869 11.5915L44.8764 28.5661L40.7497 36.2429C40.425 36.8475 40.752 37.6792 41.3128 37.6792H45.293C45.6707 37.6792 46.0244 37.4365 46.2386 37.028L59.4929 11.8166C59.8102 11.2133 59.4846 10.3884 58.9262 10.3884" fill="#283B82"/>
<path d="M72.12 0.29419H63.8376C63.2722 0.29419 62.7901 0.836859 62.7017 1.57429L59.3524 29.5572C59.286 30.1091 59.6104 30.6071 60.033 30.6071H64.2833C64.6779 30.6071 65.0159 30.2275 65.0776 29.7104L66.028 21.7785C66.1152 21.0395 66.5985 20.497 67.1639 20.497H69.7843C75.2404 20.497 78.3876 17.0184 79.211 10.1252C79.5829 7.10938 79.2257 4.73989 78.1539 3.08043C76.9781 1.25801 74.8918 0.29419 72.12 0.29419V0.29419ZM73.0755 10.5146C72.6238 14.4303 70.3536 14.4303 68.1568 14.4303H66.9085L67.7864 7.11747C67.8385 6.67541 68.1265 6.34991 68.4668 6.34991H69.0395C70.5339 6.34991 71.9457 6.34991 72.6746 7.47313C73.1094 8.14341 73.2413 9.13905 73.0755 10.5146Z" fill="#469BDB"/>
<path d="M96.8731 10.3884H92.9099C92.5696 10.3884 92.28 10.7139 92.2292 11.156L92.0537 12.6176L91.7752 12.0877C90.9168 10.4458 89.0035 9.89697 87.0927 9.89697C82.7104 9.89697 78.969 14.2706 78.2398 20.4059C77.8621 23.4664 78.3985 26.3929 79.716 28.4336C80.927 30.31 82.6535 31.0919 84.7108 31.0919C88.2418 31.0919 90.1998 28.1003 90.1998 28.1003L90.0229 29.5523C89.9565 30.1076 90.2809 30.6054 90.7061 30.6054H94.2769C94.8423 30.6054 95.3244 30.0628 95.4128 29.3242L97.5573 11.4383C97.6224 10.8878 97.298 10.3884 96.8731 10.3884V10.3884ZM91.3452 20.5592C90.965 23.5445 89.1644 25.5489 86.8712 25.5489C85.7219 25.5489 84.7992 25.0621 84.2083 24.1398C83.6224 23.2238 83.4019 21.9202 83.586 20.4681C83.9456 17.5082 85.7717 15.4387 88.03 15.4387C89.1561 15.4387 90.0714 15.9317 90.6745 16.8619C91.2811 17.8017 91.5208 19.1134 91.3452 20.5592Z" fill="#469BDB"/>
<path d="M101.548 1.0619L98.1492 29.5572C98.0827 30.1091 98.4071 30.6071 98.8298 30.6071H102.247C102.815 30.6071 103.297 30.0646 103.384 29.3258L106.736 1.34455C106.802 0.792233 106.478 0.292847 106.055 0.292847H102.229C101.891 0.294179 101.6 0.620111 101.548 1.0619" fill="#469BDB"/>
</svg>
