<svg width="50" height="51" viewBox="0 0 50 51" fill="none" xmlns="http://www.w3.org/2000/svg">
<g clip-path="url(#clip0_383_458)">
<path d="M47.3217 18.1898C46.6619 16.1468 46.9432 13.0801 45.2283 10.7122C43.5 8.32569 40.494 7.64737 38.7967 6.40597C37.1172 5.17765 35.5547 2.5047 32.7296 1.58282C29.9842 0.686922 27.1768 1.90264 25 1.90264C22.8235 1.90264 20.0163 0.686629 17.2704 1.58272C14.4458 2.5044 12.882 5.17794 11.2036 6.40567C9.50811 7.64561 6.4999 8.32579 4.77187 10.7119C3.0585 13.0778 3.33691 16.1516 2.67832 18.1897C2.05156 20.1294 0 22.4574 0 25.4723C0 28.489 2.04922 30.808 2.67832 32.7548C3.33809 34.7978 3.05684 37.8645 4.77168 40.2323C6.4999 42.619 9.50576 43.2972 11.2033 44.5387C12.8825 45.7668 14.4453 48.44 17.2704 49.3617C20.014 50.257 22.8258 49.0419 25 49.0419C27.1712 49.0419 29.9896 50.2558 32.7296 49.3618C35.5543 48.4402 37.1171 45.7672 38.7964 44.5389C40.4919 43.2989 43.5001 42.6188 45.2281 40.2326C46.9416 37.8666 46.663 34.7932 47.3217 32.7549C47.9484 30.815 50 28.487 50 25.4723C50 22.4558 47.9513 20.1374 47.3217 18.1898ZM43.6048 31.5537C42.8357 33.9341 43.0372 36.5981 42.0646 37.9412C41.0788 39.3023 38.4891 39.9239 36.4907 41.3857C34.5143 42.8311 33.129 45.1224 31.5179 45.6481C29.9937 46.1455 27.5097 45.1355 25.0001 45.1355C22.4722 45.1355 20.0138 46.1477 18.4822 45.6481C16.8713 45.1224 15.488 42.8326 13.5094 41.3856C11.5229 39.9327 8.91836 39.2983 7.93545 37.941C6.96592 36.6024 7.15977 33.9199 6.39541 31.5538C5.64619 29.2356 3.90625 27.2282 3.90625 25.4723C3.90625 23.7146 5.64463 21.7142 6.39522 19.3908C7.16426 17.0106 6.96279 14.3464 7.93545 13.0033C8.92061 11.6432 11.5123 11.0194 13.5094 9.5589C15.4921 8.1088 16.8687 5.82296 18.482 5.29649C20.005 4.79962 22.4971 5.80909 24.9999 5.80909C27.5324 5.80909 29.9847 4.7962 31.5178 5.29649C33.1285 5.82208 34.513 8.1127 36.4907 9.55899C38.477 11.0118 41.0816 11.6463 42.0646 13.0034C43.0343 14.3424 42.8394 17.0221 43.6046 19.3906V19.3907C44.3538 21.709 46.0938 23.7163 46.0938 25.4723C46.0938 27.23 44.3554 29.2304 43.6048 31.5537ZM33.9983 19.2032C34.7611 19.966 34.7611 21.2026 33.9983 21.9653L24.2224 31.7413C23.4596 32.5041 22.2229 32.504 21.4602 31.7413L16.0018 26.2829C15.239 25.5201 15.2389 24.2835 16.0017 23.5208C16.7645 22.7581 18.0013 22.758 18.7638 23.5208L22.8412 27.5982L31.236 19.2033C31.9988 18.4405 33.2355 18.4405 33.9983 19.2032Z" fill="#244D4D"/>
</g>
<defs>
<clipPath id="clip0_383_458">
<rect width="50" height="50" fill="white" transform="translate(0 0.472046)"/>
</clipPath>
</defs>
</svg>
