<svg width="50" height="51" viewBox="0 0 50 51" fill="none" xmlns="http://www.w3.org/2000/svg">
<g clip-path="url(#clip0_383_446)">
<path d="M40.6901 20.8842H35.8789V17.642C35.8789 16.833 35.223 16.1771 34.4141 16.1771H1.46484C0.655859 16.1771 0 16.833 0 17.642V44.3151C0 45.1241 0.655859 45.78 1.46484 45.78H6.45312C8.04727 52.0183 16.851 52.0141 18.4427 45.78H31.5572C33.1514 52.0183 41.9551 52.0141 43.5468 45.78H48.5352C49.3441 45.78 50 45.1241 50 44.3151V30.194C50 25.0605 45.8235 20.8842 40.6901 20.8842ZM12.4479 47.5573C10.6602 47.5573 9.20576 46.1028 9.20576 44.3151C9.38379 40.0139 15.5128 40.0152 15.6901 44.3151C15.6901 46.1028 14.2356 47.5573 12.4479 47.5573ZM32.9492 40.2092C32.2866 40.9511 31.8009 41.8535 31.5572 42.8502H18.4427C16.8485 36.6119 8.04482 36.6161 6.45312 42.8502H2.92969V19.1067H32.9492V40.2092ZM37.5521 47.5573C35.7643 47.5573 34.3099 46.1028 34.3099 44.3151C34.4879 40.0139 40.6169 40.0152 40.7942 44.3151C40.7942 46.1028 39.3398 47.5573 37.5521 47.5573ZM47.0703 42.8503H43.5484C42.8891 40.1518 40.4508 38.1432 37.5521 38.1432H35.8789V23.8138H39.2253V33.3321C39.2253 34.1411 39.8812 34.7969 40.6901 34.7969H47.0703V42.8503ZM47.0703 31.8672H42.155V23.9835C44.9692 24.6472 47.0703 27.18 47.0703 30.194V31.8672Z" fill="#244D4D"/>
<path d="M35.9828 12.8307H39.9054C41.8489 12.7533 41.8475 9.97772 39.9054 9.90106H37.712L38.0082 8.12372H39.9054C41.8489 8.04628 41.8475 5.27069 39.9054 5.19403H38.4965L38.7927 3.41669H41.4743C43.4179 3.33925 43.4164 0.56366 41.4743 0.487H37.5518C36.8357 0.487 36.2245 1.00468 36.1069 1.71102L34.5379 11.1251C34.3891 12.0182 35.0789 12.8307 35.9828 12.8307Z" fill="#222222"/>
<path d="M26.5689 12.8307H30.4914C32.435 12.7533 32.4335 9.97772 30.4914 9.90106H28.2981L28.5942 8.12372H30.4914C32.435 8.04628 32.4335 5.27069 30.4914 5.19403H29.0826L29.3789 3.41669H32.0605C34.004 3.33925 34.0025 0.56366 32.0605 0.487H28.138C27.4219 0.487 26.8107 1.00468 26.6931 1.71102L25.124 11.1251C24.9752 12.0182 25.665 12.8307 26.5689 12.8307Z" fill="#244D4D"/>
<path d="M15.3451 12.8108C16.4824 13.0004 16.9628 12.0149 17.0308 11.6067L17.2711 10.1655L20.155 12.5037C20.8216 13.044 21.7376 12.8778 22.2154 12.2884C22.725 11.6599 22.6285 10.7375 22.0001 10.228L20.3721 8.90819H21.7309C22.447 8.90819 23.0581 8.39051 23.1759 7.68426L24.0914 2.19276C24.2402 1.2996 23.5504 0.487 22.6465 0.487H17.155C16.4389 0.487 15.8277 1.00468 15.71 1.71102L14.801 7.16512C14.8006 7.16708 14.8004 7.16913 14.8 7.17108C14.7992 7.17499 14.7987 7.17889 14.798 7.1828C14.7948 7.20067 14.7916 7.21864 14.789 7.23671L14.1409 11.1251C14.0079 11.923 14.5471 12.6778 15.3451 12.8108ZM18.3959 3.41669H20.9172L20.4901 5.9785H17.9688L18.3959 3.41669Z" fill="#244D4D"/>
<path d="M6.71545 12.8109C7.85276 13.0004 8.33313 12.0149 8.40119 11.6067L8.8509 8.90831H10.8787C12.8223 8.83087 12.8208 6.05529 10.8787 5.97863H9.33918L9.76614 3.41681H12.4478C14.3913 3.33937 14.3899 0.563782 12.4478 0.487122H8.52522C7.80911 0.487122 7.19797 1.0048 7.0803 1.71114L5.51135 11.1252C5.37825 11.9231 5.91741 12.6778 6.71545 12.8109Z" fill="#244D4D"/>
</g>
<defs>
<clipPath id="clip0_383_446">
<rect width="50" height="50" fill="white" transform="translate(0 0.472046)"/>
</clipPath>
</defs>
</svg>
