<svg width="99" height="35" viewBox="0 0 99 35" fill="none" xmlns="http://www.w3.org/2000/svg">
<g clip-path="url(#clip0_401_528)">
<path d="M6.57539 25.2684C6.98656 26.3668 7.55581 27.3059 8.28325 28.0858C9.0107 28.8659 9.8725 29.4627 10.8687 29.8766C11.8649 30.2905 12.9481 30.4974 14.1183 30.4974C15.2569 30.4974 16.3243 30.2825 17.3206 29.8526C18.3168 29.4228 19.1865 28.818 19.9297 28.0381C20.6729 27.2581 21.2501 26.327 21.6613 25.2446C22.0725 24.1622 22.278 22.9525 22.278 21.6154V0.986084H27.2591V34.4131H22.3254V31.3091C21.2185 32.4869 19.9138 33.3943 18.4116 34.0311C16.9093 34.6677 15.2885 34.9861 13.5491 34.9861C11.7779 34.9861 10.1255 34.6756 8.59155 34.0549C7.05773 33.4341 5.72933 32.5508 4.60667 31.4046C3.48402 30.2585 2.59838 28.8818 1.95009 27.274C1.30169 25.6664 0.977539 23.8757 0.977539 21.9018V0.986084H5.95869V21.6154C5.95869 22.9525 6.16422 24.1701 6.57539 25.2684Z" fill="#154444"/>
<path d="M35.845 0.986084V13.163C36.952 12.0488 38.2329 11.1655 39.6877 10.5128C41.1425 9.86011 42.7238 9.53382 44.4316 9.53382C46.2028 9.53382 47.863 9.86803 49.4128 10.5366C50.9624 11.2051 52.3065 12.1124 53.4451 13.2586C54.5837 14.4047 55.4851 15.7576 56.1492 17.3175C56.8134 18.8775 57.1454 20.5329 57.1454 22.2839C57.1454 24.0347 56.8134 25.6822 56.1492 27.2262C55.4851 28.7702 54.5837 30.1153 53.4451 31.2612C52.3065 32.4074 50.9624 33.3147 49.4128 33.9832C47.863 34.6518 46.2027 34.986 44.4316 34.986C42.7237 34.986 41.1346 34.6597 39.664 34.007C38.1933 33.3544 36.9045 32.471 35.7976 31.3568V34.413H31.0537V0.986084H35.845ZM36.3906 25.5788C36.8175 26.5976 37.4106 27.489 38.1696 28.253C38.9287 29.0171 39.8142 29.622 40.8262 30.0677C41.8383 30.5134 42.9294 30.7362 44.0996 30.7362C45.2382 30.7362 46.3134 30.5134 47.3254 30.0677C48.3375 29.622 49.215 29.0172 49.9584 28.253C50.7016 27.4891 51.2946 26.5976 51.7373 25.5788C52.1801 24.5601 52.4015 23.4618 52.4015 22.2839C52.4015 21.1059 52.1801 19.9997 51.7373 18.965C51.2946 17.9303 50.7016 17.031 49.9584 16.267C49.2151 15.5031 48.3376 14.9061 47.3254 14.4763C46.3133 14.0466 45.2381 13.8316 44.0996 13.8316C42.9611 13.8316 41.8858 14.0465 40.8738 14.4763C39.8617 14.9062 38.9762 15.5031 38.2171 16.267C37.4581 17.031 36.8572 17.9303 36.4144 18.965C35.9716 19.9997 35.7503 21.1059 35.7503 22.2839C35.7502 23.4618 35.9637 24.5601 36.3906 25.5788Z" fill="#154444"/>
<path d="M59.8494 17.3652C60.4818 15.8371 61.3517 14.4922 62.4585 13.3302C63.5653 12.1682 64.878 11.2529 66.3961 10.5844C67.9141 9.91588 69.5587 9.58167 71.3298 9.58167C73.0692 9.58167 74.6822 9.90003 76.1687 10.5366C77.6551 11.1734 78.9359 12.0568 80.0112 13.187C81.0865 14.3171 81.9247 15.6542 82.5255 17.1982C83.1264 18.7422 83.4268 20.4216 83.4268 22.2362V23.8121H63.7395C63.8977 24.799 64.2139 25.7142 64.6883 26.5577C65.1628 27.4013 65.7556 28.1336 66.4672 28.7544C67.1788 29.3752 67.9853 29.8608 68.8867 30.2108C69.7881 30.561 70.7447 30.7362 71.7568 30.7362C74.6349 30.7362 76.9594 29.5423 78.7305 27.1546L82.1936 29.7332C80.9917 31.3569 79.5054 32.6303 77.7343 33.5535C75.9632 34.4767 73.9707 34.9383 71.7569 34.9383C69.9541 34.9383 68.2701 34.6198 66.7046 33.9832C65.139 33.3466 63.7791 32.4551 62.6248 31.309C61.4704 30.1629 60.5612 28.8179 59.897 27.2739C59.2329 25.73 58.9008 24.0506 58.9008 22.236C58.9005 20.517 59.2169 18.8933 59.8494 17.3652ZM66.5147 15.4789C65.1705 16.6091 64.2771 18.1133 63.8344 19.9916H78.5881C78.177 18.1133 77.2993 16.6091 75.9552 15.4789C74.611 14.3489 73.0376 13.7838 71.235 13.7838C69.4322 13.7838 67.8588 14.3489 66.5147 15.4789Z" fill="#154444"/>
<path d="M92.3927 16.0281C91.3807 17.1423 90.8746 18.6545 90.8746 20.5646V34.4131H86.0831V10.0591H90.8271V13.0675C91.428 12.0806 92.2108 11.3006 93.1754 10.7276C94.1399 10.1545 95.2864 9.86792 96.6148 9.86792H98.2751V14.3567H96.2827C94.7014 14.3568 93.4047 14.9139 92.3927 16.0281Z" fill="#154444"/>
</g>
<defs>
<clipPath id="clip0_401_528">
<rect width="97.2975" height="34" fill="white" transform="translate(0.977539 0.986084)"/>
</clipPath>
</defs>
</svg>
