<svg width="91" height="33" viewBox="0 0 91 33" fill="none" xmlns="http://www.w3.org/2000/svg">
<g clip-path="url(#clip0_401_549)">
<path d="M33.5976 30.7461L38.1487 5.14612H45.2598L40.8509 30.7461H33.5976Z" fill="#3C58BF"/>
<path d="M33.5976 30.7461L39.4287 5.14612H45.2598L40.8509 30.7461H33.5976Z" fill="#293688"/>
<path d="M66.593 5.4305C65.1708 4.86161 62.8952 4.29272 60.0508 4.29272C52.9397 4.29272 47.8197 7.84828 47.8197 12.9683C47.8197 16.8083 51.3752 18.7994 54.2197 20.0794C57.0641 21.3594 57.9175 22.2127 57.9175 23.3505C57.9175 25.0572 55.6419 25.9105 53.6508 25.9105C50.8063 25.9105 49.2419 25.4838 46.8241 24.4883L45.8286 24.0616L44.833 29.8927C46.5397 30.6038 49.6686 31.3149 52.9397 31.3149C60.4775 31.3149 65.4552 27.7594 65.4552 22.3549C65.4552 19.3683 63.6063 17.0927 59.3397 15.2438C56.7797 13.9638 55.2152 13.2527 55.2152 11.9727C55.2152 10.8349 56.4952 9.69717 59.3397 9.69717C61.7575 9.69717 63.4641 10.1238 64.7441 10.6927L65.4552 10.9772L66.593 5.4305Z" fill="#3C58BF"/>
<path d="M66.593 5.4305C65.1708 4.86161 62.8952 4.29272 60.0508 4.29272C52.9397 4.29272 49.0997 7.84828 49.0997 12.9683C49.0997 16.8083 51.3752 18.7994 54.2197 20.0794C57.0641 21.3594 57.9175 22.2127 57.9175 23.3505C57.9175 25.0572 55.6419 25.9105 53.6508 25.9105C50.8063 25.9105 49.2419 25.4838 46.8241 24.4883L45.8286 24.0616L44.833 29.8927C46.5397 30.6038 49.6686 31.3149 52.9397 31.3149C60.4775 31.3149 65.4552 27.7594 65.4552 22.3549C65.4552 19.3683 63.6063 17.0927 59.3397 15.2438C56.7797 13.9638 55.2152 13.2527 55.2152 11.9727C55.2152 10.8349 56.4952 9.69717 59.3397 9.69717C61.7575 9.69717 63.4641 10.1238 64.7441 10.6927L65.4552 10.9772L66.593 5.4305Z" fill="#293688"/>
<path d="M78.8242 5.14612C77.1175 5.14612 75.8375 5.28834 75.1264 6.99501L64.4597 30.7461H72.1397L73.562 26.4795H82.6642L83.5175 30.7461H90.3442L84.3708 5.14612H78.8242V5.14612ZM75.5531 22.2128C75.9797 20.9328 78.3975 14.675 78.3975 14.675C78.3975 14.675 78.9664 13.1106 79.3931 12.115L79.8197 14.5328C79.8197 14.5328 81.242 20.9328 81.5264 22.355H75.5531V22.2128Z" fill="#3C58BF"/>
<path d="M80.5308 5.14612C78.8242 5.14612 77.5442 5.28834 76.8331 6.99501L64.4597 30.7461H72.1397L73.562 26.4795H82.6642L83.5175 30.7461H90.3442L84.3708 5.14612H80.5308V5.14612ZM75.5531 22.2128C76.122 20.7906 78.3975 14.675 78.3975 14.675C78.3975 14.675 78.9664 13.1106 79.3931 12.115L79.8197 14.5328C79.8197 14.5328 81.242 20.9328 81.5264 22.355H75.5531V22.2128Z" fill="#293688"/>
<path d="M20.5129 23.0661L19.8018 19.3683C18.5218 15.1017 14.3974 10.4083 9.84627 8.13277L16.2463 30.8883H23.9263L35.4463 5.28833H27.7663L20.5129 23.0661Z" fill="#3C58BF"/>
<path d="M20.5129 23.0661L19.8018 19.3683C18.5218 15.1017 14.3974 10.4083 9.84627 8.13277L16.2463 30.8883H23.9263L35.4463 5.28833H29.1885L20.5129 23.0661Z" fill="#293688"/>
<path d="M0.744141 5.14612L2.02414 5.43056C11.1264 7.5639 17.3841 12.9683 19.8019 19.3683L17.2419 7.27945C16.8153 5.57278 15.5353 5.14612 13.9708 5.14612H0.744141V5.14612Z" fill="#FFBC00"/>
<path d="M0.744141 5.14612C9.84636 7.27945 17.3841 12.8261 19.8019 19.2261L17.3841 9.12834C16.9575 7.42167 15.5353 6.42612 13.9708 6.42612L0.744141 5.14612Z" fill="#F7981D"/>
<path d="M0.744141 5.14612C9.84636 7.27945 17.3841 12.8261 19.8019 19.2261L18.0953 13.6795C17.6686 11.9728 17.0997 10.2661 15.1086 9.55501L0.744141 5.14612Z" fill="#ED7C00"/>
<path d="M27.6241 22.2127L22.7885 17.3771L20.513 22.7816L19.9441 19.226C18.6641 14.9594 14.5396 10.266 9.98851 7.99048L16.3885 30.746H24.0685L27.6241 22.2127Z" fill="#051244"/>
<path d="M40.8501 30.7462L34.7346 24.4884L33.5968 30.7462H40.8501Z" fill="#051244"/>
<path d="M57.2063 21.9283C57.7752 22.4972 58.0597 22.9239 57.9175 23.4928C57.9175 25.1995 55.6419 26.0528 53.6508 26.0528C50.8063 26.0528 49.2419 25.6261 46.8241 24.6306L45.8286 24.2039L44.833 30.035C46.5397 30.7461 49.6686 31.4572 52.9397 31.4572C57.4908 31.4572 61.1886 30.1772 63.3219 27.9017L57.2063 21.9283Z" fill="#051244"/>
<path d="M65.4552 30.7459H72.1396L73.5619 26.4792H82.6641L83.5174 30.7459H90.3441L87.9263 20.3636L79.393 12.1147L79.8196 14.3903C79.8196 14.3903 81.2419 20.7903 81.5263 22.2125H75.553C76.1219 20.7903 78.3974 14.6747 78.3974 14.6747C78.3974 14.6747 78.9663 13.1103 79.393 12.1147" fill="#051244"/>
</g>
<defs>
<clipPath id="clip0_401_549">
<rect width="89.6" height="32" fill="white" transform="translate(0.744141 0.986084)"/>
</clipPath>
</defs>
</svg>
